<svg width="64" height="64" viewBox="0 0 64 64" fill="none" xmlns="http://www.w3.org/2000/svg">
<path d="M54.7861 1.898L8.2745 2.01004C4.30855 2.0196 1.10125 5.24238 1.1108 9.20834L1.22284 55.715C1.23239 59.681 4.45518 62.8883 8.42113 62.8787L54.9327 62.7667C58.8987 62.7571 62.106 59.5343 62.0964 55.5684L61.9844 9.0617C61.9748 5.09574 58.752 1.88845 54.7861 1.898Z" fill="url(#paint0_linear_545_141)"/>
<path d="M26.003 30.5735C26.003 30.5735 31.1701 30.1771 31.1555 24.1183C31.1409 18.0595 26.9059 15.1116 21.5509 15.1245L3.93063 15.167L4.01221 49.0294L21.6325 48.9869C21.6325 48.9869 32.3876 49.3006 32.3627 38.9647C32.3627 38.9647 32.8149 30.5571 26.003 30.5735ZM11.7069 21.1677L21.5506 21.144C21.5506 21.144 23.9476 21.1382 23.9561 24.6623C23.9646 28.1863 22.5581 28.7016 20.9585 28.7055L11.73 28.7277L11.7069 21.1677ZM21.1602 42.9686L11.7644 42.9912L11.7426 33.9449L21.5863 33.9212C21.5863 33.9212 25.1546 33.8633 25.1659 38.5637C25.1852 42.4766 22.5776 42.9258 21.1652 42.9686L21.1602 42.9686ZM46.6732 23.6823C33.6499 23.7136 33.696 36.7221 33.696 36.7221C33.696 36.7221 32.8314 49.6687 46.7357 49.6352C46.7357 49.6352 58.3233 50.2668 58.3 40.6052L52.3446 40.6196C52.3446 40.6196 52.5502 44.2613 46.9393 44.2748C46.9393 44.2748 40.9799 44.6878 40.9647 38.3829L58.5112 38.3407C58.5112 38.3407 60.3805 23.6492 46.6732 23.6823ZM51.9936 33.8479L40.8702 33.8747C40.8702 33.8747 41.5861 28.6558 46.818 28.6432C52.0499 28.6306 51.9936 33.8479 51.9936 33.8479ZM39.3728 17.0799L53.3411 17.0463L53.3511 21.2151L39.3829 21.2487L39.3728 17.0799Z" fill="white"/>
<defs>
<linearGradient id="paint0_linear_545_141" x1="31.5303" y1="1.95402" x2="31.6769" y2="62.8276" gradientUnits="userSpaceOnUse">
<stop stop-color="#005CFF"/>
<stop offset="1" stop-color="#0047AD"/>
</linearGradient>
</defs>
</svg>
