<svg width="64" height="65" viewBox="0 0 64 65" fill="none" xmlns="http://www.w3.org/2000/svg">
<g clip-path="url(#clip0_545_137)">
<path d="M1.44618 31.7707C1.45766 37.1479 2.86418 42.395 5.52575 47.0165L1.26755 62.8388L17.3105 58.5573C21.7564 60.983 26.7343 62.2477 31.7897 62.2359L31.803 62.2358C48.4918 62.1956 62.0439 48.4741 62.0105 31.6489C61.994 23.4958 58.8285 15.8368 53.0969 10.0827C47.3663 4.32903 39.7556 1.16944 31.6547 1.18523C14.9639 1.22544 1.41279 14.9462 1.44643 31.7707" fill="url(#paint0_linear_545_137)"/>
<path d="M0.365094 31.7636C0.376791 37.3343 1.83372 42.7691 4.59019 47.556L0.179298 63.9454L16.7975 59.5105C21.3853 62.0175 26.5471 63.3327 31.7963 63.3221L31.8098 63.322C49.0973 63.2804 63.1363 49.0653 63.1017 31.6377C63.0843 23.1917 59.8049 15.2574 53.8685 9.29713C47.9314 3.33758 40.0485 0.0642858 31.6574 0.0810266C14.367 0.122679 0.330002 14.3358 0.365094 31.7636ZM10.3042 46.7167L9.68092 45.7247C7.06078 41.5477 5.6715 36.7168 5.66151 31.7528C5.63203 17.2672 17.299 5.45393 31.6802 5.41928C38.6446 5.40548 45.1963 8.12633 50.1311 13.0797C55.0656 18.0335 57.7903 24.6279 57.8055 31.6485C57.834 46.1341 46.1668 57.9489 31.7969 57.9835L31.7866 57.9835C27.1076 57.9923 22.5157 56.7368 18.5079 54.3529L17.5542 53.7859L7.69264 56.4175L10.3042 46.7167Z" fill="url(#paint1_linear_545_137)"/>
<path d="M23.8617 18.4933C23.2714 17.1793 22.6534 17.1542 22.0949 17.1325C21.6376 17.1138 21.1149 17.1165 20.5927 17.1178C20.07 17.119 19.2212 17.3193 18.5053 18.1111C17.7886 18.9036 15.7683 20.8196 15.7777 24.7065C15.7871 28.5936 18.6048 32.3432 18.9976 32.8699C19.3909 33.3956 24.4409 41.6151 32.415 44.7627C39.0422 47.3784 40.3883 46.8518 41.825 46.7163C43.2618 46.5814 46.4577 44.7946 47.1062 42.9482C47.7551 41.102 47.7513 39.5209 47.5546 39.1909C47.3579 38.8622 46.8347 38.6658 46.05 38.2728C45.265 37.8795 41.4071 35.9775 40.6881 35.7155C39.9688 35.4538 39.4461 35.3236 38.9253 36.1159C38.4045 36.907 36.9078 38.6897 36.4516 39.2177C35.9959 39.7469 35.5386 39.8137 34.7541 39.4205C33.9688 39.026 31.4426 38.1988 28.4414 35.5148C26.1064 33.4263 24.5271 30.844 24.068 30.0541C23.6088 29.2653 24.0161 28.8362 24.4081 28.4416C24.7594 28.0867 25.19 27.5172 25.5811 27.0551C25.9708 26.5927 26.1005 26.2632 26.3605 25.7357C26.6209 25.2077 26.4888 24.7466 26.2922 24.3519C26.0949 23.9573 24.5624 20.0537 23.8617 18.4933Z" fill="white"/>
</g>
<defs>
<linearGradient id="paint0_linear_545_137" x1="3056.84" y1="6151.93" x2="3042.01" y2="-6.0666" gradientUnits="userSpaceOnUse">
<stop stop-color="#1FAF38"/>
<stop offset="1" stop-color="#60D669"/>
</linearGradient>
<linearGradient id="paint1_linear_545_137" x1="3165.38" y1="6371.39" x2="3150.02" y2="-7.43099" gradientUnits="userSpaceOnUse">
<stop stop-color="#F9F9F9"/>
<stop offset="1" stop-color="white"/>
</linearGradient>
<clipPath id="clip0_545_137">
<rect width="63" height="64" fill="white" transform="translate(0.0256348 0.157227) rotate(-0.138023)"/>
</clipPath>
</defs>
</svg>
