<svg width="64" height="64" viewBox="0 0 64 64" fill="none" xmlns="http://www.w3.org/2000/svg">
<g clip-path="url(#clip0_545_129)">
<path d="M48.2627 0.404801L14.7941 0.485426C6.63928 0.505071 0.0444286 7.13177 0.0640732 15.2866L0.144698 48.7552C0.164343 56.91 6.79104 63.5049 14.9459 63.4852L48.4145 63.4046C56.5693 63.385 63.1642 56.7583 63.1445 48.6035L63.0639 15.1348C63.0442 6.98001 56.4175 0.385157 48.2627 0.404801Z" fill="url(#paint0_radial_545_129)"/>
<path d="M48.2627 0.404801L14.7941 0.485426C6.63928 0.505071 0.0444286 7.13177 0.0640732 15.2866L0.144698 48.7552C0.164343 56.91 6.79104 63.5049 14.9459 63.4852L48.4145 63.4046C56.5693 63.385 63.1642 56.7583 63.1445 48.6035L63.0639 15.1348C63.0442 6.98001 56.4175 0.385157 48.2627 0.404801Z" fill="url(#paint1_radial_545_129)"/>
<path d="M31.5473 7.33573C24.8639 7.35183 24.025 7.38314 21.4005 7.50882C18.7808 7.63522 16.9935 8.0542 15.4303 8.66655C13.813 9.29897 12.4421 10.1432 11.0776 11.5148C9.71186 12.8861 8.87427 14.2611 8.24768 15.8806C7.64114 17.4473 7.23029 19.2374 7.11872 21.8563C7.00765 24.4817 6.97891 25.3209 6.99501 32.0046C7.01111 38.6882 7.04266 39.5244 7.16809 42.1489C7.29499 44.7685 7.71396 46.5559 8.32583 48.1191C8.95874 49.7364 9.80295 51.1073 11.1745 52.4718C12.5454 53.8375 13.9203 54.6771 15.5394 55.3017C17.1068 55.9065 18.8964 56.3169 21.5161 56.4306C24.1415 56.5437 24.9797 56.5709 31.6629 56.5548C38.347 56.5387 39.1832 56.5074 41.8077 56.3818C44.4273 56.2554 46.2166 55.8364 47.7811 55.224C49.3976 54.5916 50.7666 53.7454 52.1306 52.3731C53.4963 51.002 54.3336 49.6271 54.9605 48.0075C55.5616 46.4406 55.9727 44.6508 56.0894 42.0315C56.201 39.4064 56.2297 38.5696 56.2136 31.886C56.1975 25.2024 56.1647 24.3638 56.0405 21.739C55.9112 19.1194 55.4915 17.3322 54.8828 15.769C54.2482 14.1518 53.4042 12.7808 52.0319 11.4161C50.6598 10.0506 49.2888 9.21302 47.6672 8.58914C46.0969 7.98409 44.3066 7.57348 41.6864 7.45995C39.061 7.34692 38.2252 7.31964 31.5396 7.33575L31.5473 7.33573ZM29.3502 11.7759C30.0056 11.7733 30.7367 11.7726 31.5579 11.7706C38.1289 11.7547 38.9076 11.7765 41.5026 11.8881C43.9023 11.9921 45.2056 12.3898 46.0739 12.7247C47.2235 13.1678 48.0435 13.6991 48.9064 14.5586C49.7698 15.4179 50.3049 16.2368 50.7548 17.3843C51.0938 18.2497 51.4983 19.551 51.6133 21.9502C51.7374 24.5442 51.7649 25.3233 51.7807 31.891C51.7966 38.4588 51.7728 39.2382 51.6612 41.8325C51.5572 44.2322 51.1595 45.5355 50.8247 46.4028C50.3815 47.5524 49.8492 48.3715 48.99 49.2344C48.1307 50.0978 47.3142 50.6328 46.1663 51.0817C45.3006 51.4222 43.9983 51.8252 41.5991 51.9408C39.0051 52.0649 38.226 52.0923 31.6551 52.1082C25.0839 52.124 24.305 52.1003 21.7106 51.9887C19.311 51.8837 18.0077 51.4859 17.1386 51.1511C15.9893 50.7077 15.1675 50.1767 14.3041 49.3174C13.4407 48.4582 12.9057 47.6412 12.4558 46.4933C12.1168 45.6276 11.7123 44.3262 11.5973 41.9271C11.4731 39.3331 11.4476 38.554 11.4318 31.9821C11.416 25.4104 11.4377 24.6352 11.5494 22.0406C11.6533 19.6409 12.0511 18.3376 12.3859 17.4693C12.8293 16.3197 13.3613 15.4982 14.2208 14.6348C15.0801 13.7714 15.899 13.2361 17.0465 12.7865C17.9131 12.446 19.215 12.043 21.6141 11.9269C23.8841 11.8188 24.7638 11.786 29.3502 11.7697L29.3502 11.7759ZM44.7042 15.8251C43.0739 15.829 41.7543 17.1537 41.7582 18.7843C41.7621 20.4147 43.0881 21.7342 44.7185 21.7303C46.3488 21.7264 47.6684 20.4004 47.6645 18.7701C47.6605 17.1397 46.3346 15.8201 44.7042 15.8241L44.7042 15.8251ZM31.5761 19.3072C24.5969 19.324 18.9519 24.9963 18.9687 31.9757C18.9855 38.9552 24.6578 44.5975 31.637 44.5807C38.6164 44.5639 44.2595 38.8943 44.2427 31.9148C44.2259 24.9356 38.555 19.2904 31.5756 19.3072L31.5761 19.3072ZM31.5868 23.742C36.1171 23.7311 39.7989 27.3947 39.8098 31.9255C39.8207 36.4558 36.1566 40.1376 31.6263 40.1485C27.0957 40.1595 23.4144 36.4954 23.4035 31.965C23.3926 27.4342 27.0562 23.7529 31.5868 23.742Z" fill="white"/>
</g>
<defs>
<radialGradient id="paint0_radial_545_129" cx="0" cy="0" r="1" gradientUnits="userSpaceOnUse" gradientTransform="translate(16.9263 68.3327) rotate(-90.138) scale(62.4377 58.072)">
<stop stop-color="#FFDD55"/>
<stop offset="0.1" stop-color="#FFDD55"/>
<stop offset="0.5" stop-color="#FF543E"/>
<stop offset="1" stop-color="#C837AB"/>
</radialGradient>
<radialGradient id="paint1_radial_545_129" cx="0" cy="0" r="1" gradientUnits="userSpaceOnUse" gradientTransform="translate(-10.5133 5.08462) rotate(78.543) scale(27.91 115.046)">
<stop stop-color="#3771C8"/>
<stop offset="0.128" stop-color="#3771C8"/>
<stop offset="1" stop-color="#6600FF" stop-opacity="0"/>
</radialGradient>
<clipPath id="clip0_545_129">
<rect width="63" height="63" fill="white" transform="translate(0.0285034 0.520996) rotate(-0.138023)"/>
</clipPath>
</defs>
</svg>
