<svg width="29" height="26" viewBox="0 0 29 26" fill="none" xmlns="http://www.w3.org/2000/svg">
<path d="M15.1175 21.6853L14.9775 21.8215L14.8235 21.6853C8.17348 15.8133 3.77748 11.9305 3.77748 7.99319C3.77748 5.26839 5.87748 3.2248 8.67748 3.2248C10.8335 3.2248 12.9335 4.58719 13.6755 6.44005H16.2795C17.0215 4.58719 19.1215 3.2248 21.2775 3.2248C24.0775 3.2248 26.1775 5.26839 26.1775 7.99319C26.1775 11.9305 21.7815 15.8133 15.1175 21.6853ZM21.2775 0.5C18.8415 0.5 16.5035 1.60354 14.9775 3.33379C13.4515 1.60354 11.1135 0.5 8.67748 0.5C4.36548 0.5 0.977478 3.78338 0.977478 7.99319C0.977478 13.1294 5.73748 17.3392 12.9475 23.7016L14.9775 25.5L17.0075 23.7016C24.2175 17.3392 28.9775 13.1294 28.9775 7.99319C28.9775 3.78338 25.5895 0.5 21.2775 0.5Z" fill="#737373"/>
</svg>
