<svg width="34" height="34" viewBox="0 0 34 34" fill="none" xmlns="http://www.w3.org/2000/svg">
<g clip-path="url(#clip0_587_144)">
<path d="M11.9327 19.8793C10.4382 20.3793 9.0895 21.0833 7.88664 21.9914C6.68377 22.8995 5.65461 23.9626 4.79916 25.1809C3.94371 26.3991 3.28435 27.7233 2.82109 29.1535C2.35783 30.5837 2.11838 32.0873 2.10272 33.6644L4.20544 33.6853C4.22327 31.8892 4.55739 30.2277 5.20781 28.7007C5.85823 27.1738 6.75857 25.8465 7.90885 24.7189C9.05913 23.5912 10.3985 22.7228 11.927 22.1136C13.4555 21.5045 15.1288 21.198 16.947 21.1942C18.1188 21.2058 19.2454 21.3648 20.3267 21.6713C21.4079 21.9777 22.4114 22.4039 23.3369 22.9498C24.2625 23.4957 25.1048 24.1557 25.8638 24.9299C26.6228 25.7042 27.266 26.5594 27.7934 27.4956C28.3208 28.4318 28.7324 29.449 29.0281 30.5472C29.3239 31.6455 29.4606 32.7749 29.4381 33.9357L31.5408 33.9566C31.5565 32.3795 31.3414 30.8714 30.8957 29.4322C30.45 27.9929 29.8115 26.6613 28.9803 25.4373C28.1491 24.2133 27.1411 23.1409 25.9564 22.22C24.7717 21.2992 23.4373 20.5576 21.9534 19.9952C22.8121 19.5437 23.5843 18.9928 24.2698 18.3425C24.9554 17.6921 25.5376 16.9695 26.0164 16.1747C26.4953 15.3799 26.8707 14.5239 27.1427 13.6065C27.4146 12.6892 27.5554 11.7487 27.565 10.7849C27.5794 9.32834 27.3192 7.96214 26.7842 6.68631C26.2492 5.41048 25.5101 4.28596 24.5669 3.31276C23.6237 2.33955 22.5195 1.57833 21.2544 1.02909C19.9894 0.479848 18.6231 0.192468 17.1557 0.166949C15.6991 0.152492 14.3329 0.41275 13.0571 0.947723C11.7813 1.4827 10.6568 2.2218 9.68356 3.16503C8.71036 4.10826 7.94913 5.21241 7.39989 6.47747C6.85065 7.74254 6.56327 9.10878 6.53775 10.5762C6.52818 11.5399 6.64483 12.4776 6.8877 13.389C7.13057 14.3005 7.48897 15.1584 7.96291 15.9627C8.43684 16.7669 9.00458 17.5009 9.66611 18.1646C10.3276 18.8284 11.0832 19.3999 11.9327 19.8793ZM25.4622 10.764C25.4507 11.9249 25.2209 13.0124 24.7727 14.0266C24.3245 15.0407 23.7134 15.9219 22.9392 16.6699C22.1651 17.418 21.2666 18.0114 20.2436 18.4504C19.2207 18.8893 18.1287 19.103 16.9679 19.0914C15.807 19.0799 14.7195 18.8501 13.7053 18.4019C12.6912 17.9537 11.8101 17.3426 11.062 16.5684C10.3139 15.7943 9.72046 14.8958 9.28155 13.8728C8.84264 12.8499 8.62895 11.7579 8.64047 10.5971C8.652 9.43619 8.88184 8.34867 9.33002 7.33452C9.7782 6.32036 10.3893 5.43925 11.1635 4.6912C11.9376 3.94314 12.8361 3.34966 13.8591 2.91075C14.882 2.47184 15.974 2.25815 17.1348 2.26967C18.2957 2.28119 19.3832 2.51104 20.3974 2.95922C21.4115 3.4074 22.2927 4.01854 23.0407 4.79266C23.7888 5.56678 24.3822 6.46532 24.8212 7.48828C25.2601 8.51124 25.4738 9.60316 25.4622 10.764Z" fill="#737373"/>
</g>
<defs>
<clipPath id="clip0_587_144">
<rect width="33.6452" height="33.6452" fill="white" transform="matrix(-0.999951 -0.00992542 -0.00992542 0.999951 33.9775 0.333923)"/>
</clipPath>
</defs>
</svg>
