<svg width="57" height="63" viewBox="0 0 57 63" fill="none" xmlns="http://www.w3.org/2000/svg">
<g clip-path="url(#clip0_545_134)">
<path d="M56.1052 31.1956C56.064 14.0749 43.4945 0.225864 28.0306 0.263116C12.5668 0.300367 0.0641353 14.2098 0.105378 31.3305C0.142652 46.8033 10.4128 59.6036 23.8041 61.8969L23.7519 40.2345L16.6425 40.2516L16.621 31.2907L23.7303 31.2736L23.7139 24.4439C23.6951 16.6745 27.8651 12.3729 34.2609 12.3575C37.3243 12.3501 40.53 12.9479 40.53 12.9479L40.5483 20.5768L37.0177 20.5853C33.5394 20.5937 32.4604 22.9859 32.4663 25.4376L32.4803 31.2525L40.2459 31.2338L39.0261 40.1977L32.5019 40.2134L32.5541 61.8758C45.9342 59.5181 56.1425 46.6686 56.1052 31.1956Z" fill="#1877F2"/>
<path d="M39.0261 40.1975L40.2459 31.2336L32.4803 31.2523L32.4663 25.4374C32.4604 22.9855 33.5394 20.5934 37.0177 20.5851L40.5483 20.5766L40.53 12.9477C40.53 12.9477 37.3243 12.3499 34.2607 12.3573C27.8651 12.3727 23.6951 16.6743 23.7138 24.4437L23.7303 31.2733L16.6209 31.2905L16.6425 40.2514L23.7519 40.2343L23.8041 61.8967C25.252 62.1443 26.715 62.2667 28.18 62.2627C29.6449 62.2597 31.1074 62.1302 32.554 61.8756L32.5019 40.2132L39.0261 40.1975Z" fill="white"/>
</g>
<defs>
<clipPath id="clip0_545_134">
<rect width="56" height="62" fill="white" transform="translate(0.0307007 0.330566) rotate(-0.138023)"/>
</clipPath>
</defs>
</svg>
