<svg width="28" height="32" viewBox="0 0 28 32" fill="none" xmlns="http://www.w3.org/2000/svg">
<path fill-rule="evenodd" clip-rule="evenodd" d="M13.9775 2.89581C13.1321 2.89581 12.3213 3.23164 11.7236 3.82941C11.1258 4.42718 10.79 5.23794 10.79 6.08331V6.45165C11.5791 6.43748 12.4446 6.43748 13.3966 6.43748H14.5597C15.5089 6.43748 16.3759 6.43748 17.1664 6.45165V6.08331C17.1664 5.66461 17.0839 5.25 16.9236 4.86318C16.7634 4.47637 16.5284 4.12491 16.2323 3.82891C15.9362 3.5329 15.5846 3.29814 15.1977 3.13804C14.8108 2.97794 14.3962 2.89563 13.9775 2.89581ZM19.29 6.54798V6.08331C19.29 4.67435 18.7303 3.3231 17.734 2.32681C16.7377 1.33052 15.3864 0.770813 13.9775 0.770813C12.5685 0.770813 11.2173 1.33052 10.221 2.32681C9.22469 3.3231 8.66498 4.67435 8.66498 6.08331V6.54798C8.4624 6.56498 8.26831 6.58481 8.07848 6.6089C6.64765 6.78598 5.46898 7.15715 4.46598 7.98873C3.4644 8.82031 2.88215 9.91115 2.4444 11.2853C2.0194 12.617 1.69923 14.3269 1.2969 16.4788L1.26715 16.6346C0.697646 19.6706 0.24998 22.0633 0.166396 23.9489C0.0813962 25.8826 0.370396 27.4835 1.46123 28.7967C2.55206 30.1114 4.07215 30.6894 5.98748 30.9628C7.85748 31.2291 10.2899 31.2291 13.3796 31.2291H14.5767C17.6651 31.2291 20.0989 31.2291 21.9675 30.9628C23.8828 30.6894 25.4043 30.1114 26.4951 28.7967C27.586 27.4835 27.8721 25.8826 27.7886 23.9489C27.7064 22.0633 27.2573 19.6706 26.6878 16.6346L26.6595 16.4788C26.2557 14.3269 25.9341 12.6156 25.512 11.2853C25.0728 9.91115 24.492 8.82031 23.489 7.98873C22.4874 7.15715 21.3073 6.78456 19.8765 6.6089C19.6814 6.58497 19.4858 6.56466 19.29 6.54798ZM8.33915 8.71831C7.1279 8.86706 6.39548 9.14898 5.82315 9.62498C5.25223 10.0981 4.83998 10.7654 4.46881 11.9299C4.09056 13.1199 3.79165 14.7037 3.37231 16.9406C2.78298 20.0814 2.36506 22.324 2.28998 24.0424C2.21631 25.7282 2.48831 26.7057 3.09606 27.441C3.70523 28.1734 4.61615 28.6196 6.28781 28.8576C7.98781 29.1013 10.2715 29.1041 13.4675 29.1041H14.4875C17.6849 29.1041 19.9657 29.1013 21.6671 28.8591C23.3388 28.6196 24.2497 28.1734 24.8589 27.441C25.4681 26.7071 25.7386 25.7296 25.6664 24.041C25.5899 22.3254 25.172 20.0814 24.5826 16.9406C24.1633 14.7023 23.8658 13.1213 23.4861 11.9299C23.115 10.7654 22.7041 10.0981 22.1318 9.62356C21.5595 9.14898 20.8285 8.86706 19.6158 8.7169C18.3748 8.5639 16.7641 8.56248 14.4875 8.56248H13.4675C11.1909 8.56248 9.58015 8.5639 8.33915 8.71831Z" fill="#737373"/>
</svg>
